<svg width="23" height="24" viewBox="0 0 23 24" fill="none" xmlns="http://www.w3.org/2000/svg">
<g clip-path="url(#clip0_4113_459)">
<path d="M11.482 23.7048C17.8234 23.7048 22.9641 18.3983 22.9641 11.8524C22.9641 5.30651 17.8234 0 11.482 0C5.14068 0 0 5.30651 0 11.8524C0 18.3983 5.14068 23.7048 11.482 23.7048Z" fill="#3B5998"/>
<path d="M14.3687 12.3164H12.3199V20.0645H9.21575V12.3164H7.73941V9.59342H9.21575V7.83134C9.21575 6.57126 9.7956 4.59811 12.3475 4.59811L14.6469 4.60804V7.25116H12.9786C12.7049 7.25116 12.3201 7.3923 12.3201 7.99339V9.59596H14.6399L14.3687 12.3164Z" fill="white"/>
</g>
<defs>
<clipPath id="clip0_4113_459">
<rect width="22.9641" height="23.7048" fill="white"/>
</clipPath>
</defs>
</svg>
